<svg width="184" height="56" viewBox="0 0 184 56" fill="none" xmlns="http://www.w3.org/2000/svg">
<path d="M21.6876 42.952C20.1943 42.952 18.8876 42.6347 17.7676 42C16.685 41.4027 16.1436 40.3387 16.1436 38.808C16.1436 37.8373 16.3863 36.7547 16.8716 35.56C17.5436 36.3067 18.1596 36.8293 18.7196 37.128C19.317 37.4267 19.9516 37.576 20.6236 37.576C22.4903 37.576 23.8716 36.5307 24.7676 34.44C25.701 32.3493 26.1676 30.0347 26.1676 27.496C26.1676 22.7547 24.3943 20.384 20.8476 20.384C19.8396 20.384 18.981 20.44 18.2716 20.552L13.6796 42H5.61563L13.2316 6.384L21.5196 5.264L18.8876 17.696H19.2236C20.6423 17.696 21.9676 17.248 23.1996 16.352C24.4316 15.4187 25.421 14.2613 26.1676 12.88C26.9143 11.4613 27.2876 10.0427 27.2876 8.624C27.2876 6.90667 26.6716 5.46933 25.4396 4.312C24.245 3.15466 22.397 2.576 19.8956 2.576C17.6183 2.576 15.397 3.09866 13.2316 4.144C11.0663 5.152 9.29296 6.68266 7.91163 8.736C6.56763 10.7893 5.89563 13.272 5.89563 16.184C5.89563 17.5653 6.02629 18.536 6.28763 19.096C6.54896 19.6187 6.67963 19.9173 6.67963 19.992C4.70096 19.992 3.20763 19.6 2.19963 18.816C1.19163 17.9947 0.687625 16.6693 0.687625 14.84C0.687625 12.3013 1.63963 9.89333 3.54363 7.616C5.44763 5.33867 7.96763 3.50933 11.1036 2.128C14.2396 0.709331 17.5436 -3.33786e-06 21.0156 -3.33786e-06C23.629 -3.33786e-06 25.8316 0.410664 27.6236 1.232C29.4156 2.05333 30.741 3.136 31.5996 4.48C32.4956 5.824 32.9436 7.29867 32.9436 8.904C32.9436 10.6213 32.4583 12.2827 31.4876 13.888C30.517 15.4933 29.1356 16.8 27.3436 17.808C29.5836 18.2187 31.245 19.264 32.3276 20.944C33.4103 22.5867 33.9516 24.5467 33.9516 26.824C33.9516 28.952 33.541 31.2667 32.7196 33.768C31.9356 36.2693 30.6103 38.4347 28.7436 40.264C26.9143 42.056 24.5623 42.952 21.6876 42.952ZM44.0666 42.224C41.304 42.224 39.12 41.5147 37.5146 40.096C35.9093 38.6773 35.1066 36.4373 35.1066 33.376C35.1066 30.8373 35.6293 28.0187 36.6746 24.92C37.72 21.8213 39.4 19.152 41.7146 16.912C44.0293 14.6347 46.9413 13.496 50.4506 13.496C55.2293 13.496 57.6186 16.4827 57.6186 22.456V22.512C57.7306 22.5493 57.936 22.568 58.2346 22.568C59.4666 22.568 60.8853 22.2507 62.4906 21.616C64.096 20.944 65.552 20.1413 66.8586 19.208L67.3626 20.72C66.28 21.8773 64.8613 22.8667 63.1066 23.688C61.3893 24.472 59.504 25.032 57.4506 25.368C57.152 28.7653 56.3866 31.7333 55.1546 34.272C53.9226 36.8107 52.336 38.7707 50.3946 40.152C48.4533 41.5333 46.344 42.224 44.0666 42.224ZM46.3066 37.184C47.2026 37.184 48.0986 36.68 48.9946 35.672C49.8906 34.6267 50.6746 33.2267 51.3466 31.472C52.0186 29.68 52.504 27.7013 52.8026 25.536C51.7946 25.312 51.2906 24.528 51.2906 23.184C51.2906 21.6533 51.8693 20.6453 53.0266 20.16C52.952 18.928 52.7653 18.088 52.4666 17.64C52.168 17.1547 51.6453 16.912 50.8986 16.912C49.6666 16.912 48.472 17.808 47.3146 19.6C46.1573 21.392 45.224 23.5387 44.5146 26.04C43.8053 28.5413 43.4506 30.744 43.4506 32.648C43.4506 34.44 43.656 35.6533 44.0666 36.288C44.4773 36.8853 45.224 37.184 46.3066 37.184ZM70.412 56C68.62 56 67.1267 55.5333 65.932 54.6C64.7373 53.6667 64.14 52.3227 64.14 50.568C64.14 48.44 64.9987 46.7227 66.716 45.416C68.4333 44.1467 70.6173 43.0827 73.268 42.224L73.94 39.256C72.036 41.3093 69.796 42.336 67.22 42.336C65.092 42.336 63.3187 41.608 61.9 40.152C60.4813 38.696 59.772 36.4187 59.772 33.32C59.772 30.5573 60.3133 27.664 61.396 24.64C62.516 21.5787 64.1587 19.0027 66.324 16.912C68.5267 14.784 71.14 13.72 74.164 13.72C75.6947 13.72 76.8333 13.9813 77.58 14.504C78.3267 15.0267 78.7 15.7173 78.7 16.576V16.912L79.316 14H87.38L81.836 39.984C83.628 39.3867 85.0653 38.4907 86.148 37.296C87.2307 36.1013 88.1453 34.328 88.892 31.976H91.244C90.236 35.2987 88.8733 37.744 87.156 39.312C85.4387 40.8427 83.4973 41.888 81.332 42.448L80.492 46.48C79.7453 50.1013 78.4573 52.584 76.628 53.928C74.7987 55.3093 72.7267 56 70.412 56ZM70.86 36.904C71.7187 36.904 72.596 36.512 73.492 35.728C74.388 34.944 75.004 33.88 75.34 32.536L78.196 19.264C78.196 18.816 78.0093 18.368 77.636 17.92C77.2627 17.4347 76.684 17.192 75.9 17.192C74.4067 17.192 73.0627 18.0693 71.868 19.824C70.6733 21.5413 69.74 23.632 69.068 26.096C68.396 28.5227 68.06 30.6693 68.06 32.536C68.06 34.4027 68.3213 35.5973 68.844 36.12C69.404 36.6427 70.076 36.904 70.86 36.904ZM69.124 51.632C69.7587 51.632 70.3747 51.2027 70.972 50.344C71.5693 49.4853 72.036 48.2533 72.372 46.648L72.708 45.024C69.0493 46.368 67.22 47.9547 67.22 49.784C67.22 50.2693 67.388 50.6987 67.724 51.072C68.06 51.4453 68.5267 51.632 69.124 51.632ZM98.2348 10.976C97.0028 10.976 95.9575 10.5467 95.0988 9.688C94.2401 8.82933 93.8108 7.784 93.8108 6.552C93.8108 5.32 94.2401 4.27467 95.0988 3.416C95.9575 2.52 97.0028 2.072 98.2348 2.072C99.4668 2.072 100.512 2.52 101.371 3.416C102.267 4.27467 102.715 5.32 102.715 6.552C102.715 7.784 102.267 8.82933 101.371 9.688C100.512 10.5467 99.4668 10.976 98.2348 10.976ZM94.4268 42.336C92.6348 42.336 91.1788 41.776 90.0588 40.656C88.9761 39.536 88.4348 37.856 88.4348 35.616C88.4348 34.6827 88.5841 33.4693 88.8828 31.976L92.6908 14H100.755L96.7228 33.04C96.5735 33.6 96.4988 34.1973 96.4988 34.832C96.4988 35.5787 96.6668 36.12 97.0028 36.456C97.3761 36.7547 97.9735 36.904 98.7948 36.904C99.8775 36.904 100.885 36.456 101.819 35.56C102.752 34.6267 103.424 33.432 103.835 31.976H106.187C104.805 36.008 103.032 38.752 100.867 40.208C98.7015 41.6267 96.5548 42.336 94.4268 42.336ZM124.029 42.336C121.751 42.336 120.071 41.7387 118.989 40.544C117.943 39.312 117.421 37.8 117.421 36.008C117.421 35.224 117.514 34.3467 117.701 33.376C117.887 32.368 118.074 31.3973 118.261 30.464C118.485 29.5307 118.634 28.9333 118.709 28.672C119.007 27.3653 119.287 26.0773 119.549 24.808C119.81 23.5387 119.941 22.512 119.941 21.728C119.941 19.824 119.269 18.872 117.925 18.872C116.954 18.872 116.095 19.3573 115.349 20.328C114.602 21.2613 114.005 22.4933 113.557 24.024L109.749 42H101.684L107.621 14H115.685L115.069 16.912C116.935 14.8213 119.119 13.776 121.621 13.776C123.525 13.776 125.037 14.2987 126.157 15.344C127.277 16.3893 127.837 17.976 127.837 20.104C127.837 21.1867 127.706 22.4 127.445 23.744C127.183 25.0507 126.81 26.656 126.325 28.56C126.026 29.7173 125.746 30.856 125.485 31.976C125.261 33.0587 125.149 33.9173 125.149 34.552C125.149 35.2987 125.317 35.8773 125.653 36.288C125.989 36.6987 126.567 36.904 127.389 36.904C128.509 36.904 129.405 36.512 130.077 35.728C130.749 34.9067 131.421 33.656 132.092 31.976H134.445C133.063 36.0827 131.458 38.8453 129.629 40.264C127.837 41.6453 125.97 42.336 124.029 42.336ZM140.262 42.224C137.499 42.224 135.315 41.5147 133.71 40.096C132.105 38.6773 131.302 36.4373 131.302 33.376C131.302 30.8373 131.825 28.0187 132.87 24.92C133.915 21.8213 135.595 19.152 137.91 16.912C140.225 14.6347 143.137 13.496 146.646 13.496C151.425 13.496 153.814 16.4827 153.814 22.456V22.512C153.926 22.5493 154.131 22.568 154.43 22.568C155.662 22.568 157.081 22.2507 158.686 21.616C160.291 20.944 161.747 20.1413 163.054 19.208L163.558 20.72C162.475 21.8773 161.057 22.8667 159.302 23.688C157.585 24.472 155.699 25.032 153.646 25.368C153.347 28.7653 152.582 31.7333 151.35 34.272C150.118 36.8107 148.531 38.7707 146.59 40.152C144.649 41.5333 142.539 42.224 140.262 42.224ZM142.502 37.184C143.398 37.184 144.294 36.68 145.19 35.672C146.086 34.6267 146.87 33.2267 147.542 31.472C148.214 29.68 148.699 27.7013 148.998 25.536C147.99 25.312 147.486 24.528 147.486 23.184C147.486 21.6533 148.065 20.6453 149.222 20.16C149.147 18.928 148.961 18.088 148.662 17.64C148.363 17.1547 147.841 16.912 147.094 16.912C145.862 16.912 144.667 17.808 143.51 19.6C142.353 21.392 141.419 23.5387 140.71 26.04C140.001 28.5413 139.646 30.744 139.646 32.648C139.646 34.44 139.851 35.6533 140.262 36.288C140.673 36.8853 141.419 37.184 142.502 37.184ZM164.871 42.224C162.109 42.224 159.925 41.5147 158.319 40.096C156.714 38.6773 155.911 36.4373 155.911 33.376C155.911 30.8 156.415 27.9813 157.423 24.92C158.431 21.8213 160.074 19.152 162.351 16.912C164.629 14.6347 167.541 13.496 171.087 13.496C175.493 13.496 177.863 16.016 178.199 21.056C179.021 20.8693 179.749 20.4213 180.383 19.712C181.018 18.9653 181.615 18.1253 182.175 17.192H183.967C182.959 19.208 182.063 20.7947 181.279 21.952C180.495 23.072 179.469 23.9867 178.199 24.696C177.975 28.2053 177.247 31.2853 176.015 33.936C174.821 36.5867 173.253 38.64 171.311 40.096C169.37 41.5147 167.223 42.224 164.871 42.224ZM167.111 37.184C168.493 37.184 169.781 36.064 170.975 33.824C172.17 31.584 172.991 28.8213 173.439 25.536C172.543 25.2 172.095 24.36 172.095 23.016C172.095 21.56 172.618 20.5893 173.663 20.104C173.589 18.9093 173.383 18.088 173.047 17.64C172.749 17.1547 172.245 16.912 171.535 16.912C170.303 16.912 169.127 17.808 168.007 19.6C166.887 21.3547 165.973 23.5013 165.263 26.04C164.591 28.5413 164.255 30.744 164.255 32.648C164.255 34.44 164.461 35.6533 164.871 36.288C165.282 36.8853 166.029 37.184 167.111 37.184Z" fill="#02B589"/>
</svg>
