<svg width="46" height="40" viewBox="0 0 46 40" fill="none" xmlns="http://www.w3.org/2000/svg">
<path d="M0 20.0027C0 20.8866 0.35357 21.7343 0.982927 22.3593C1.61228 22.9843 2.46587 23.3354 3.35592 23.3354H23.4914C24.3815 23.3354 25.2351 22.9843 25.8644 22.3593C26.4938 21.7343 26.8474 20.8866 26.8474 20.0027C26.8474 19.1187 26.4938 18.271 25.8644 17.646C25.2351 17.021 24.3815 16.6699 23.4914 16.6699H3.35592C2.46587 16.6699 1.61228 17.021 0.982927 17.646C0.35357 18.271 0 19.1187 0 20.0027Z" fill="#02B589"/>
<path d="M45.4141 17.4698C44.6636 12.5256 42.1221 8.02345 38.2665 4.80808C34.4109 1.59271 29.5063 -0.114796 24.4731 0.00599704H19.4057C16.6874 0.00599704 15.2108 1.50575 15.2108 3.33878C15.2108 4.22268 15.5643 5.07039 16.1937 5.69541C16.8231 6.32042 17.6767 6.67156 18.5667 6.67156H24.5738C28.0225 6.58014 31.3815 7.76931 33.9943 10.0066C36.6071 12.2439 38.2858 15.3685 38.7022 18.7695C38.8754 20.621 38.6567 22.488 38.0601 24.2506C37.4635 26.0131 36.5022 27.6322 35.238 29.0038C33.9738 30.3754 32.4346 31.4692 30.7194 32.215C29.0042 32.9607 27.1509 33.3418 25.2785 33.3338H18.5667C17.6767 33.3338 16.8231 33.6849 16.1937 34.3099C15.5643 34.935 15.2108 35.7827 15.2108 36.6666C15.2108 37.5505 15.5643 38.3982 16.1937 39.0232C16.8231 39.6482 17.6767 39.9994 18.5667 39.9994H25.2785C28.1518 40.0223 30.9967 39.4344 33.6221 38.275C36.2476 37.1156 38.5928 35.4115 40.5001 33.2774C42.4075 31.1433 43.8328 28.6285 44.6804 25.9019C45.5279 23.1754 45.7781 20.3003 45.4141 17.4698V17.4698Z" fill="#02B589"/>
</svg>
